<svg width="18" height="18" viewBox="0 0 18 18" fill="none" xmlns="http://www.w3.org/2000/svg">
<path d="M17.2375 4.92143L15.6375 6.52143C15.5988 6.56016 15.5529 6.59089 15.5024 6.61185C15.4518 6.63282 15.3977 6.64361 15.343 6.64361C15.2883 6.64361 15.2341 6.63282 15.1835 6.61185C15.133 6.59089 15.0871 6.56016 15.0485 6.52143L11.2095 2.67443C11.1707 2.63578 11.14 2.58988 11.119 2.53935C11.0981 2.48881 11.0873 2.43464 11.0873 2.37993C11.0873 2.32521 11.0981 2.27104 11.119 2.2205C11.14 2.16997 11.1707 2.12407 11.2095 2.08543L12.8095 0.485426C13.1217 0.174541 13.5444 0 13.985 0C14.4256 0 14.8482 0.174541 15.1605 0.485426L17.2375 2.57043C17.3922 2.72457 17.515 2.90775 17.5988 3.10948C17.6826 3.3112 17.7258 3.52749 17.7258 3.74593C17.7258 3.96436 17.6826 4.18065 17.5988 4.38237C17.515 4.5841 17.3922 4.76728 17.2375 4.92143ZM9.83746 3.45643L0.746462 12.5484L0.012462 16.7554C-0.0105711 16.887 -0.00158432 17.0222 0.0386624 17.1496C0.0789092 17.2769 0.149233 17.3927 0.243687 17.4872C0.338142 17.5817 0.453951 17.652 0.581322 17.6922C0.708694 17.7325 0.843884 17.7415 0.975462 17.7184L5.18246 16.9814L14.2735 7.88843C14.3122 7.84978 14.3429 7.80388 14.3639 7.75335C14.3849 7.70281 14.3956 7.64864 14.3956 7.59393C14.3956 7.53921 14.3849 7.48504 14.3639 7.4345C14.3429 7.38397 14.3122 7.33807 14.2735 7.29943L10.4305 3.45643C10.3518 3.37826 10.2454 3.33439 10.1345 3.33439C10.0236 3.33439 9.91715 3.37826 9.83846 3.45643H9.83746ZM4.29746 11.7694C4.25217 11.7245 4.21622 11.6711 4.19169 11.6122C4.16715 11.5534 4.15452 11.4902 4.15452 11.4264C4.15452 11.3626 4.16715 11.2995 4.19169 11.2406C4.21622 11.1818 4.25217 11.1283 4.29746 11.0834L9.62746 5.75243C9.67251 5.70738 9.72598 5.67165 9.78483 5.64727C9.84368 5.6229 9.90676 5.61035 9.97046 5.61035C10.0342 5.61035 10.0972 5.6229 10.1561 5.64727C10.2149 5.67165 10.2684 5.70738 10.3135 5.75243C10.3585 5.79747 10.3942 5.85094 10.4186 5.9098C10.443 5.96865 10.4555 6.03172 10.4555 6.09543C10.4555 6.15913 10.443 6.2222 10.4186 6.28106C10.3942 6.33991 10.3585 6.39338 10.3135 6.43843L4.98046 11.7694C4.93556 11.8147 4.88213 11.8507 4.82326 11.8752C4.76439 11.8997 4.70124 11.9124 4.63746 11.9124C4.57368 11.9124 4.51054 11.8997 4.45167 11.8752C4.39279 11.8507 4.33937 11.8147 4.29446 11.7694H4.29746ZM3.04746 14.6814H4.70746V15.9384L2.47446 16.3294L1.39746 15.2524L1.78846 13.0194H3.04546L3.04746 14.6814Z" fill="#FFF"/>
</svg>
