<svg width="12" height="12" viewBox="0 0 12 12" fill="none" xmlns="http://www.w3.org/2000/svg">
<g clip-path="url(#clip0_910_39)">
<path d="M11.4297 2.07021C11.3829 2.02345 11.323 1.99994 11.2502 1.99994H8.83598L8.2891 0.695325C8.211 0.502571 8.07035 0.338495 7.86734 0.20307C7.66413 0.0676717 7.4583 0 7.25003 0H4.74995C4.54169 0 4.33591 0.0676717 4.13278 0.20307C3.92963 0.338495 3.78901 0.502544 3.71085 0.695325L3.16398 1.99994H0.749911C0.676931 1.99994 0.617112 2.02345 0.57021 2.07021C0.523445 2.11709 0.499939 2.17701 0.499939 2.24991V2.74997C0.499939 2.82286 0.523335 2.88279 0.57021 2.92958C0.617112 2.97643 0.67704 2.99986 0.749911 2.99986H1.49985V10.4374C1.49985 10.8699 1.62225 11.2383 1.86703 11.5429C2.11185 11.8477 2.40613 12 2.74991 12H9.25005C9.59391 12 9.88816 11.8425 10.133 11.5274C10.3777 11.2122 10.5 10.8386 10.5 10.4063V2.99986H11.2501C11.323 2.99986 11.3829 2.97643 11.4297 2.92958C11.4765 2.88282 11.5 2.82286 11.5 2.74997V2.24991C11.5001 2.17701 11.4765 2.11709 11.4297 2.07021ZM4.63281 1.08576C4.66923 1.03891 4.71353 1.01018 4.76561 0.999834H7.24218C7.29425 1.01026 7.33863 1.03896 7.375 1.08576L7.75014 1.99983H4.24998L4.63281 1.08576ZM9.50013 10.4064C9.50013 10.5209 9.48196 10.6264 9.44543 10.7227C9.40893 10.819 9.37108 10.8893 9.33212 10.9336C9.29296 10.978 9.26581 11 9.25008 11H2.74993C2.73431 11 2.70711 10.978 2.66795 10.9336C2.62885 10.8893 2.59106 10.819 2.55458 10.7227C2.51816 10.6264 2.49993 10.5208 2.49993 10.4064V2.99986H9.5001V10.4064H9.50013Z" fill="#8A0000"/>
<path d="M3.75003 9.50007H4.25001C4.32299 9.50007 4.38294 9.47667 4.42971 9.42983C4.47647 9.38281 4.49998 9.32308 4.49998 9.25004V4.74989C4.49998 4.67702 4.47647 4.61709 4.42971 4.57019C4.38281 4.52342 4.32302 4.5 4.25001 4.5H3.75003C3.67705 4.5 3.61721 4.5234 3.57033 4.57019C3.52351 4.61709 3.50006 4.67702 3.50006 4.74989V9.25004C3.50006 9.32308 3.52343 9.38284 3.57033 9.42983C3.61721 9.47665 3.67705 9.50007 3.75003 9.50007Z" fill="#8A0000"/>
<path d="M5.75003 9.50007H6.25C6.32295 9.50007 6.38288 9.47667 6.42962 9.42983C6.47663 9.38281 6.49991 9.32308 6.49991 9.25004V4.74989C6.49991 4.67702 6.4766 4.61709 6.42962 4.57019C6.38288 4.52342 6.32295 4.5 6.25 4.5H5.75003C5.67713 4.5 5.61721 4.5234 5.57033 4.57019C5.52343 4.61709 5.50006 4.67702 5.50006 4.74989V9.25004C5.50006 9.32308 5.52343 9.38284 5.57033 9.42983C5.61718 9.47665 5.67713 9.50007 5.75003 9.50007Z" fill="#8A0000"/>
<path d="M7.75009 9.50007H8.24998C8.32301 9.50007 8.38294 9.47667 8.42976 9.42983C8.47658 9.38281 8.49987 9.32308 8.49987 9.25004V4.74989C8.49987 4.67702 8.47655 4.61709 8.42976 4.57019C8.38294 4.52342 8.32301 4.5 8.24998 4.5H7.75009C7.67703 4.5 7.61729 4.5234 7.57028 4.57019C7.52346 4.61709 7.50006 4.67702 7.50006 4.74989V9.25004C7.50006 9.32308 7.52346 9.38284 7.57028 9.42983C7.61729 9.47665 7.67703 9.50007 7.75009 9.50007Z" fill="#8A0000"/>
</g>
<defs>
<clipPath id="clip0_910_39">
<rect width="12" height="12" fill="white"/>
</clipPath>
</defs>
</svg>
